<svg id="Capa_1" enable-background="new 0 0 512 512" height="512" viewBox="0 0 512 512" width="512" xmlns="http://www.w3.org/2000/svg"><g><path d="m416 142.05h-68.34l20.34 224h144v-110.05z" fill="#3da57c"/><path d="m416 142.05v113.95h96l-63.998-113.95z" fill="#505381"/><path d="m400 78.05v26.86l-32 37.14v224h-368v-96l64-192z" fill="#d0ec43"/><path d="m400 78.05v26.86l-32 37.14v224h-156.25v-288z" fill="#53cf55"/><path d="m248.46 194.09-25.98 15-10.56-18.3h-.34l-10.56 18.3-25.98-15 19.22-33.3h34.98z" fill="#53cf55"/><path d="m248.46 194.09-25.98 15-10.56-18.3h-.17v-30h17.49z" fill="#3da57c"/><path d="m264.99 283.307h-38.376v-30h21.056l.173-.299-10.493-18.175 25.98-15 19.153 33.175z" fill="#3da57c"/><path d="m196.886 283.307h-38.376l-17.493-30.299 19.153-33.175 25.98 15-10.493 18.175.173.299h21.056z" fill="#53cf55"/><circle cx="96" cy="382.05" fill="#505381" r="51.9"/><circle cx="416.002" cy="382.05" fill="#3b3e5e" r="51.9"/><path d="m81 367.05h30v30h-30z" fill="#6969a2"/><path d="m401.002 367.05h30v30h-30z" fill="#505381"/></g></svg>